<?xml version="1.0" encoding="UTF-8" standalone="no"?>
<!DOCTYPE svg PUBLIC "-//W3C//DTD SVG 1.1//EN" "http://www.w3.org/Graphics/SVG/1.1/DTD/svg11.dtd">
<svg xmlns="http://www.w3.org/2000/svg" version="1.1" viewBox="0.00 0.00 1920.00 455.00">
<g stroke-width="2.00" fill="none" stroke-linecap="butt">
<path stroke="#9ca6b0" vector-effect="non-scaling-stroke" d="
  M 138.02 400.94
  Q 139.20 402.45 141.98 403.32"
/>
<path stroke="#afe3f8" vector-effect="non-scaling-stroke" d="
  M 141.98 403.32
  Q 159.67 413.29 177.44 423.30
  C 179.03 424.19 181.12 424.18 183.09 425.51
  Q 185.64 427.22 188.43 428.46
  Q 188.88 428.65 189.35 428.53
  Q 190.44 428.25 192.01 428.48
  Q 204.71 430.39 217.62 426.88
  C 218.78 426.56 220.13 426.88 221.45 425.76
  Q 221.76 425.50 222.10 425.69
  Q 222.51 425.91 222.83 425.61
  Q 223.95 424.50 225.15 424.49
  Q 225.65 424.48 225.99 424.13
  L 226.56 423.56
  A 0.28 0.28 0.0 0 1 226.94 423.56
  L 227.22 423.85
  Q 227.56 424.18 227.98 423.97
  C 231.03 422.42 234.05 420.09 236.65 418.62
  Q 292.75 387.06 348.51 354.90
  Q 363.95 345.99 365.70 344.73
  Q 375.80 337.45 382.13 326.54
  C 389.74 313.44 391.10 297.35 391.00 281.59
  Q 390.65 224.83 390.76 168.07
  A 1.13 1.11 -22.9 0 1 391.09 167.28
  L 391.60 166.77
  Q 391.96 166.41 391.52 166.15
  L 391.14 165.92
  Q 390.72 165.67 390.71 165.17
  Q 390.64 154.71 390.50 144.25
  C 390.43 138.77 388.63 129.16 385.76 124.46
  Q 381.99 118.31 377.40 112.70
  Q 377.08 112.30 377.44 111.93
  L 377.66 111.72
  A 0.24 0.23 34.6 0 0 377.59 111.34
  Q 377.22 111.16 377.00 111.36
  Q 376.84 111.51 376.62 111.46
  Q 375.29 111.14 375.56 110.02
  Q 375.69 109.53 375.33 109.17
  Q 371.06 104.87 367.53 102.70
  Q 328.51 78.68 274.59 47.99
  Q 249.65 33.80 224.88 19.32
  Q 223.03 18.23 221.75 17.98
  Q 214.63 16.60 200.45 14.54
  A 1.36 1.36 0.0 0 0 199.54 14.73
  C 194.30 17.84 185.51 16.11 180.91 20.30
  A 0.75 0.73 -50.8 0 1 180.03 20.40
  Q 179.28 19.97 179.02 20.73
  Q 178.86 21.18 178.44 21.42
  L 84.72 76.16
  A 0.57 0.49 26.1 0 1 84.45 76.23
  Q 83.30 76.26 82.86 77.31
  A 1.04 1.04 0.0 0 1 82.37 77.83
  Q 78.89 79.51 75.60 81.54
  C 61.39 90.29 45.87 97.74 33.51 109.08
  C 28.08 114.05 24.12 120.96 19.67 126.94
  Q 19.40 127.29 19.46 127.73
  L 19.82 130.36
  A 0.55 0.51 52.0 0 1 19.80 130.61
  C 15.58 142.03 17.12 152.36 17.09 165.06
  Q 16.96 212.39 17.03 305.29
  C 17.04 317.91 24.36 328.26 30.45 338.70
  A 1.78 1.72 0.6 0 0 31.12 339.36
  Q 53.42 351.89 75.69 364.48
  C 76.85 365.13 78.03 366.25 79.80 366.96
  Q 82.85 368.19 91.08 373.69
  Q 91.18 373.76 91.15 373.87
  L 91.03 374.38
  A 0.12 0.12 0.0 0 0 91.15 374.53
  Q 94.00 374.39 95.65 376.89
  A 1.13 1.12 76.4 0 0 96.46 377.39
  C 97.65 377.52 97.69 377.53 98.67 378.12
  Q 118.22 389.84 138.02 400.94"
/>
<path stroke="#4b8aa8" vector-effect="non-scaling-stroke" d="
  M 141.98 403.32
  Q 141.00 401.96 138.02 400.94"
/>
<path stroke="#9ca6b0" vector-effect="non-scaling-stroke" d="
  M 694.87 183.60
  C 693.48 161.72 702.54 146.66 727.00 155.50
  Q 727.61 155.72 727.81 155.10
  L 737.70 123.40
  Q 737.85 122.91 737.37 122.73
  C 692.09 106.62 647.51 132.35 649.13 183.44
  Q 649.15 184.04 648.55 184.04
  L 630.51 183.98
  A 0.76 0.76 0.0 0 0 629.75 184.74
  L 629.75 216.75
  Q 629.75 217.50 630.50 217.50
  L 648.25 217.50
  A 0.75 0.75 0.0 0 1 649.00 218.25
  L 649.00 330.50
  Q 649.00 331.00 649.50 331.00
  L 694.50 331.00
  A 0.50 0.50 0.0 0 0 695.00 330.50
  L 695.00 218.00
  A 0.50 0.50 0.0 0 1 695.50 217.50
  L 742.50 217.50
  A 0.50 0.50 0.0 0 1 743.00 218.00
  L 743.00 330.50
  A 0.50 0.50 0.0 0 0 743.50 331.00
  L 788.00 331.00
  A 0.50 0.50 0.0 0 0 788.50 330.50
  L 788.50 218.00
  Q 788.50 217.50 789.00 217.50
  L 831.50 217.50
  Q 832.00 217.50 832.00 218.00
  L 832.00 330.50
  A 0.50 0.50 0.0 0 0 832.50 331.00
  L 877.50 331.00
  A 0.50 0.50 0.0 0 0 878.00 330.50
  L 878.00 184.50
  A 0.50 0.50 0.0 0 0 877.50 184.00
  L 788.79 184.00
  Q 788.38 184.00 788.36 183.60
  C 787.52 167.15 793.52 154.35 811.21 151.87
  Q 831.42 149.04 850.46 156.73
  A 0.48 0.48 0.0 0 0 851.10 156.42
  L 860.72 123.24
  Q 860.87 122.72 860.37 122.51
  C 818.57 105.35 747.53 115.14 743.28 172.01
  Q 743.00 175.81 742.97 183.30
  Q 742.97 184.00 742.26 184.00
  L 695.30 184.00
  Q 694.90 184.00 694.87 183.60"
/>
<path stroke="#9ca6b0" vector-effect="non-scaling-stroke" d="
  M 1679.38 197.42
  C 1665.37 177.04 1631.26 178.13 1612.10 187.90
  C 1578.19 205.18 1569.79 247.70 1577.45 281.65
  C 1584.54 313.09 1609.81 336.81 1643.56 333.64
  Q 1669.70 331.18 1683.60 309.36
  A 0.36 0.36 0.0 0 1 1684.26 309.52
  L 1686.25 330.52
  A 0.52 0.52 0.0 0 0 1686.77 331.00
  L 1726.25 331.00
  A 0.38 0.37 89.2 0 0 1726.62 330.61
  Q 1725.82 310.98 1725.76 291.25
  Q 1725.49 204.75 1725.46 118.48
  A 0.48 0.48 0.0 0 0 1724.98 118.00
  L 1680.50 118.00
  A 0.50 0.50 0.0 0 0 1680.00 118.50
  L 1680.00 197.22
  A 0.34 0.34 0.0 0 1 1679.38 197.42"
/>
<path stroke="#9ca6b0" vector-effect="non-scaling-stroke" d="
  M 420.84 254.69
  C 427.77 294.20 454.73 325.70 495.09 332.36
  C 546.08 340.78 594.30 316.30 608.23 264.51
  C 623.96 206.03 600.98 136.63 533.24 127.23
  C 454.35 116.28 408.17 182.50 420.84 254.69"
/>
<path stroke="#9ca6b0" vector-effect="non-scaling-stroke" d="
  M 1333.75 271.85
  A 0.40 0.40 0.0 0 1 1332.98 272.03
  C 1312.88 222.07 1285.04 176.24 1258.66 129.53
  A 1.05 1.04 -14.7 0 0 1257.75 129.00
  L 1205.50 129.00
  A 0.50 0.50 0.0 0 0 1205.00 129.50
  L 1205.00 330.50
  Q 1205.00 331.00 1205.50 331.00
  L 1246.28 331.00
  Q 1246.98 331.00 1246.98 330.30
  C 1247.13 281.06 1247.21 231.76 1245.27 182.53
  A 0.50 0.50 0.0 0 1 1245.82 182.02
  Q 1246.13 182.05 1246.30 182.44
  C 1268.50 233.56 1296.83 281.90 1323.83 330.59
  Q 1324.06 331.00 1324.53 331.00
  L 1371.50 331.00
  A 0.50 0.50 0.0 0 0 1372.00 330.50
  L 1372.00 129.50
  A 0.50 0.50 0.0 0 0 1371.50 129.00
  L 1330.49 129.00
  A 0.44 0.43 -89.3 0 0 1330.06 129.43
  C 1329.74 176.91 1329.23 224.72 1333.75 271.85"
/>
<path stroke="#9ca6b0" vector-effect="non-scaling-stroke" d="
  M 1080.57 272.79
  A 0.47 0.47 0.0 0 1 1081.04 272.25
  L 1174.23 272.25
  Q 1174.70 272.25 1174.77 271.79
  C 1181.17 232.26 1166.97 187.74 1121.46 181.94
  C 1061.68 174.31 1026.96 227.16 1039.48 281.00
  C 1053.04 339.40 1119.79 341.14 1165.20 326.20
  Q 1166.43 325.79 1167.70 325.12
  Q 1168.13 324.90 1168.04 324.42
  L 1162.30 294.74
  Q 1162.20 294.21 1161.68 294.33
  Q 1157.14 295.37 1152.64 296.46
  C 1130.64 301.75 1085.10 305.63 1080.57 272.79"
/>
<path stroke="#9ca6b0" vector-effect="non-scaling-stroke" d="
  M 1402.96 277.49
  C 1418.00 351.55 1529.87 353.06 1550.46 281.75
  C 1560.21 247.99 1550.48 208.33 1518.25 190.54
  C 1502.67 181.94 1485.37 179.84 1467.48 181.73
  C 1417.65 187.02 1393.50 230.89 1402.96 277.49"
/>
<path stroke="#9ca6b0" vector-effect="non-scaling-stroke" d="
  M 1796.55 272.79
  A 0.48 0.47 86.3 0 1 1797.02 272.25
  L 1890.03 272.25
  Q 1890.56 272.25 1890.65 271.73
  C 1899.86 219.93 1870.44 171.53 1811.73 182.41
  C 1769.23 190.29 1749.64 230.24 1753.79 270.48
  C 1757.34 304.95 1780.09 327.94 1814.00 332.72
  C 1836.74 335.93 1862.61 333.05 1883.57 325.33
  A 0.76 0.75 74.6 0 0 1884.05 324.48
  L 1878.30 294.74
  Q 1878.17 294.07 1877.51 294.27
  C 1854.86 301.15 1801.56 308.58 1796.55 272.79"
/>
<path stroke="#9ca6b0" vector-effect="non-scaling-stroke" d="
  M 907.49 280.24
  C 919.69 333.87 978.86 342.01 1022.42 327.96
  A 1.32 1.30 76.7 0 0 1023.31 326.50
  L 1018.16 294.48
  Q 1018.05 293.78 1017.37 294.02
  C 983.09 306.13 946.98 292.24 952.30 249.77
  C 956.48 216.45 989.77 210.78 1016.08 220.24
  Q 1016.57 220.41 1016.68 219.90
  L 1023.63 187.19
  Q 1023.75 186.63 1023.21 186.46
  Q 995.79 177.82 967.42 183.11
  C 920.27 191.90 897.09 234.52 907.49 280.24"
/>
<path stroke="#afe3f8" vector-effect="non-scaling-stroke" d="
  M 198.00 376.23
  L 198.00 377.49
  Q 198.00 378.00 198.51 378.00
  C 202.91 377.99 206.95 378.50 211.18 377.01
  C 215.51 375.48 219.61 374.12 223.67 371.83
  Q 271.95 344.56 320.16 317.18
  C 342.94 304.25 343.96 287.92 344.03 264.01
  Q 344.19 215.47 343.87 166.95
  Q 343.80 156.14 338.60 147.11
  C 336.39 143.29 329.92 135.44 326.05 133.22
  Q 272.56 102.61 219.02 72.08
  C 216.88 70.86 210.95 69.78 208.63 69.65
  C 205.22 69.46 201.14 69.99 197.96 68.98
  Q 197.33 68.79 196.61 69.01
  Q 183.43 73.09 180.25 74.99
  Q 129.80 105.12 79.37 135.28
  C 73.49 138.80 69.83 146.65 68.00 152.98
  C 67.17 155.83 65.14 157.26 65.66 160.90
  A 1.18 1.15 -31.0 0 1 65.44 161.74
  L 64.56 162.89
  Q 64.19 163.37 64.15 163.98
  Q 63.64 171.92 63.77 179.85
  C 64.23 208.12 64.02 236.42 64.03 264.69
  Q 64.03 269.91 64.95 278.66
  C 65.33 282.29 64.78 287.92 66.27 292.04
  C 69.76 301.70 76.28 309.89 85.35 315.11
  Q 138.17 345.45 191.12 375.55
  Q 191.47 375.74 191.86 375.74
  L 197.47 375.70
  Q 198.00 375.70 198.00 376.23"
/>
<path stroke="#afe3f8" vector-effect="non-scaling-stroke" d="
  M 255.56 168.69
  Q 234.55 156.45 213.52 144.21
  A 1.49 1.47 -30.2 0 0 212.74 144.01
  Q 210.91 144.08 210.57 142.38
  Q 210.45 141.80 209.85 141.79
  L 198.30 141.65
  Q 197.69 141.65 197.16 141.96
  L 139.21 176.24
  Q 138.77 176.50 138.60 176.98
  C 138.03 178.53 134.06 181.93 132.15 184.11
  Q 131.83 184.48 131.80 184.97
  C 130.29 207.52 131.02 230.35 130.97 252.96
  C 130.96 255.54 130.27 258.59 131.26 261.92
  Q 131.40 262.40 131.81 262.68
  Q 133.02 263.50 132.74 265.05
  Q 132.66 265.48 133.00 265.76
  Q 137.60 269.54 140.81 271.44
  Q 152.16 278.13 177.32 292.19
  Q 189.28 298.87 193.73 301.71
  C 195.08 302.57 196.39 302.68 197.69 303.71
  Q 198.06 304.00 198.53 304.00
  L 209.75 304.00
  A 1.92 1.89 29.0 0 0 210.73 303.73
  Q 238.36 287.36 266.11 271.23
  C 269.00 269.55 272.51 267.18 274.03 264.13
  C 276.12 259.98 278.26 255.63 278.21 250.82
  Q 278.03 233.50 277.92 216.19
  C 277.84 204.12 277.98 190.51 273.60 182.12
  C 270.64 176.44 262.15 172.52 255.56 168.69"
/>
<path stroke="#9ca6b0" vector-effect="non-scaling-stroke" d="
  M 1634.44 291.56
  C 1650.12 303.67 1672.66 297.15 1678.25 277.76
  C 1681.21 267.49 1680.16 252.99 1679.64 243.06
  C 1678.55 221.92 1657.60 208.93 1638.58 219.41
  C 1616.54 231.54 1615.15 276.67 1634.44 291.56"
/>
<path stroke="#9ca6b0" vector-effect="non-scaling-stroke" d="
  M 489.67 171.32
  C 455.59 198.16 457.13 294.31 513.26 297.61
  C 574.64 301.22 579.38 192.90 537.10 168.07
  C 522.27 159.37 503.16 160.70 489.67 171.32"
/>
<path stroke="#9ca6b0" vector-effect="non-scaling-stroke" d="
  M 1115.27 212.29
  C 1095.80 207.74 1082.16 222.06 1080.48 240.44
  Q 1080.43 241.00 1080.99 241.00
  L 1133.25 241.00
  Q 1133.79 241.00 1133.79 240.46
  C 1133.89 228.08 1128.08 215.28 1115.27 212.29"
/>
<path stroke="#9ca6b0" vector-effect="non-scaling-stroke" d="
  M 1477.94 213.57
  C 1439.22 213.29 1439.09 291.91 1470.59 300.19
  C 1497.76 307.33 1506.66 277.97 1506.86 257.70
  C 1507.04 239.89 1500.85 213.73 1477.94 213.57"
/>
<path stroke="#9ca6b0" vector-effect="non-scaling-stroke" d="
  M 1831.27 212.29
  C 1811.78 207.72 1798.19 222.07 1796.48 240.43
  Q 1796.42 241.00 1796.99 241.00
  L 1849.26 241.00
  Q 1849.82 241.00 1849.83 240.43
  C 1849.90 228.11 1844.08 215.30 1831.27 212.29"
/>
</g>
<path fill="#ffffff" d="
  M 0.00 0.00
  L 1920.00 0.00
  L 1920.00 455.00
  L 0.00 455.00
  L 0.00 0.00
  Z
  M 138.02 400.94
  Q 139.20 402.45 141.98 403.32
  Q 159.67 413.29 177.44 423.30
  C 179.03 424.19 181.12 424.18 183.09 425.51
  Q 185.64 427.22 188.43 428.46
  Q 188.88 428.65 189.35 428.53
  Q 190.44 428.25 192.01 428.48
  Q 204.71 430.39 217.62 426.88
  C 218.78 426.56 220.13 426.88 221.45 425.76
  Q 221.76 425.50 222.10 425.69
  Q 222.51 425.91 222.83 425.61
  Q 223.95 424.50 225.15 424.49
  Q 225.65 424.48 225.99 424.13
  L 226.56 423.56
  A 0.28 0.28 0.0 0 1 226.94 423.56
  L 227.22 423.85
  Q 227.56 424.18 227.98 423.97
  C 231.03 422.42 234.05 420.09 236.65 418.62
  Q 292.75 387.06 348.51 354.90
  Q 363.95 345.99 365.70 344.73
  Q 375.80 337.45 382.13 326.54
  C 389.74 313.44 391.10 297.35 391.00 281.59
  Q 390.65 224.83 390.76 168.07
  A 1.13 1.11 -22.9 0 1 391.09 167.28
  L 391.60 166.77
  Q 391.96 166.41 391.52 166.15
  L 391.14 165.92
  Q 390.72 165.67 390.71 165.17
  Q 390.64 154.71 390.50 144.25
  C 390.43 138.77 388.63 129.16 385.76 124.46
  Q 381.99 118.31 377.40 112.70
  Q 377.08 112.30 377.44 111.93
  L 377.66 111.72
  A 0.24 0.23 34.6 0 0 377.59 111.34
  Q 377.22 111.16 377.00 111.36
  Q 376.84 111.51 376.62 111.46
  Q 375.29 111.14 375.56 110.02
  Q 375.69 109.53 375.33 109.17
  Q 371.06 104.87 367.53 102.70
  Q 328.51 78.68 274.59 47.99
  Q 249.65 33.80 224.88 19.32
  Q 223.03 18.23 221.75 17.98
  Q 214.63 16.60 200.45 14.54
  A 1.36 1.36 0.0 0 0 199.54 14.73
  C 194.30 17.84 185.51 16.11 180.91 20.30
  A 0.75 0.73 -50.8 0 1 180.03 20.40
  Q 179.28 19.97 179.02 20.73
  Q 178.86 21.18 178.44 21.42
  L 84.72 76.16
  A 0.57 0.49 26.1 0 1 84.45 76.23
  Q 83.30 76.26 82.86 77.31
  A 1.04 1.04 0.0 0 1 82.37 77.83
  Q 78.89 79.51 75.60 81.54
  C 61.39 90.29 45.87 97.74 33.51 109.08
  C 28.08 114.05 24.12 120.96 19.67 126.94
  Q 19.40 127.29 19.46 127.73
  L 19.82 130.36
  A 0.55 0.51 52.0 0 1 19.80 130.61
  C 15.58 142.03 17.12 152.36 17.09 165.06
  Q 16.96 212.39 17.03 305.29
  C 17.04 317.91 24.36 328.26 30.45 338.70
  A 1.78 1.72 0.6 0 0 31.12 339.36
  Q 53.42 351.89 75.69 364.48
  C 76.85 365.13 78.03 366.25 79.80 366.96
  Q 82.85 368.19 91.08 373.69
  Q 91.18 373.76 91.15 373.87
  L 91.03 374.38
  A 0.12 0.12 0.0 0 0 91.15 374.53
  Q 94.00 374.39 95.65 376.89
  A 1.13 1.12 76.4 0 0 96.46 377.39
  C 97.65 377.52 97.69 377.53 98.67 378.12
  Q 118.22 389.84 138.02 400.94
  Z
  M 694.87 183.60
  C 693.48 161.72 702.54 146.66 727.00 155.50
  Q 727.61 155.72 727.81 155.10
  L 737.70 123.40
  Q 737.85 122.91 737.37 122.73
  C 692.09 106.62 647.51 132.35 649.13 183.44
  Q 649.15 184.04 648.55 184.04
  L 630.51 183.98
  A 0.76 0.76 0.0 0 0 629.75 184.74
  L 629.75 216.75
  Q 629.75 217.50 630.50 217.50
  L 648.25 217.50
  A 0.75 0.75 0.0 0 1 649.00 218.25
  L 649.00 330.50
  Q 649.00 331.00 649.50 331.00
  L 694.50 331.00
  A 0.50 0.50 0.0 0 0 695.00 330.50
  L 695.00 218.00
  A 0.50 0.50 0.0 0 1 695.50 217.50
  L 742.50 217.50
  A 0.50 0.50 0.0 0 1 743.00 218.00
  L 743.00 330.50
  A 0.50 0.50 0.0 0 0 743.50 331.00
  L 788.00 331.00
  A 0.50 0.50 0.0 0 0 788.50 330.50
  L 788.50 218.00
  Q 788.50 217.50 789.00 217.50
  L 831.50 217.50
  Q 832.00 217.50 832.00 218.00
  L 832.00 330.50
  A 0.50 0.50 0.0 0 0 832.50 331.00
  L 877.50 331.00
  A 0.50 0.50 0.0 0 0 878.00 330.50
  L 878.00 184.50
  A 0.50 0.50 0.0 0 0 877.50 184.00
  L 788.79 184.00
  Q 788.38 184.00 788.36 183.60
  C 787.52 167.15 793.52 154.35 811.21 151.87
  Q 831.42 149.04 850.46 156.73
  A 0.48 0.48 0.0 0 0 851.10 156.42
  L 860.72 123.24
  Q 860.87 122.72 860.37 122.51
  C 818.57 105.35 747.53 115.14 743.28 172.01
  Q 743.00 175.81 742.97 183.30
  Q 742.97 184.00 742.26 184.00
  L 695.30 184.00
  Q 694.90 184.00 694.87 183.60
  Z
  M 1679.38 197.42
  C 1665.37 177.04 1631.26 178.13 1612.10 187.90
  C 1578.19 205.18 1569.79 247.70 1577.45 281.65
  C 1584.54 313.09 1609.81 336.81 1643.56 333.64
  Q 1669.70 331.18 1683.60 309.36
  A 0.36 0.36 0.0 0 1 1684.26 309.52
  L 1686.25 330.52
  A 0.52 0.52 0.0 0 0 1686.77 331.00
  L 1726.25 331.00
  A 0.38 0.37 89.2 0 0 1726.62 330.61
  Q 1725.82 310.98 1725.76 291.25
  Q 1725.49 204.75 1725.46 118.48
  A 0.48 0.48 0.0 0 0 1724.98 118.00
  L 1680.50 118.00
  A 0.50 0.50 0.0 0 0 1680.00 118.50
  L 1680.00 197.22
  A 0.34 0.34 0.0 0 1 1679.38 197.42
  Z
  M 420.84 254.69
  C 427.77 294.20 454.73 325.70 495.09 332.36
  C 546.08 340.78 594.30 316.30 608.23 264.51
  C 623.96 206.03 600.98 136.63 533.24 127.23
  C 454.35 116.28 408.17 182.50 420.84 254.69
  Z
  M 1333.75 271.85
  A 0.40 0.40 0.0 0 1 1332.98 272.03
  C 1312.88 222.07 1285.04 176.24 1258.66 129.53
  A 1.05 1.04 -14.7 0 0 1257.75 129.00
  L 1205.50 129.00
  A 0.50 0.50 0.0 0 0 1205.00 129.50
  L 1205.00 330.50
  Q 1205.00 331.00 1205.50 331.00
  L 1246.28 331.00
  Q 1246.98 331.00 1246.98 330.30
  C 1247.13 281.06 1247.21 231.76 1245.27 182.53
  A 0.50 0.50 0.0 0 1 1245.82 182.02
  Q 1246.13 182.05 1246.30 182.44
  C 1268.50 233.56 1296.83 281.90 1323.83 330.59
  Q 1324.06 331.00 1324.53 331.00
  L 1371.50 331.00
  A 0.50 0.50 0.0 0 0 1372.00 330.50
  L 1372.00 129.50
  A 0.50 0.50 0.0 0 0 1371.50 129.00
  L 1330.49 129.00
  A 0.44 0.43 -89.3 0 0 1330.06 129.43
  C 1329.74 176.91 1329.23 224.72 1333.75 271.85
  Z
  M 1080.57 272.79
  A 0.47 0.47 0.0 0 1 1081.04 272.25
  L 1174.23 272.25
  Q 1174.70 272.25 1174.77 271.79
  C 1181.17 232.26 1166.97 187.74 1121.46 181.94
  C 1061.68 174.31 1026.96 227.16 1039.48 281.00
  C 1053.04 339.40 1119.79 341.14 1165.20 326.20
  Q 1166.43 325.79 1167.70 325.12
  Q 1168.13 324.90 1168.04 324.42
  L 1162.30 294.74
  Q 1162.20 294.21 1161.68 294.33
  Q 1157.14 295.37 1152.64 296.46
  C 1130.64 301.75 1085.10 305.63 1080.57 272.79
  Z
  M 1402.96 277.49
  C 1418.00 351.55 1529.87 353.06 1550.46 281.75
  C 1560.21 247.99 1550.48 208.33 1518.25 190.54
  C 1502.67 181.94 1485.37 179.84 1467.48 181.73
  C 1417.65 187.02 1393.50 230.89 1402.96 277.49
  Z
  M 1796.55 272.79
  A 0.48 0.47 86.3 0 1 1797.02 272.25
  L 1890.03 272.25
  Q 1890.56 272.25 1890.65 271.73
  C 1899.86 219.93 1870.44 171.53 1811.73 182.41
  C 1769.23 190.29 1749.64 230.24 1753.79 270.48
  C 1757.34 304.95 1780.09 327.94 1814.00 332.72
  C 1836.74 335.93 1862.61 333.05 1883.57 325.33
  A 0.76 0.75 74.6 0 0 1884.05 324.48
  L 1878.30 294.74
  Q 1878.17 294.07 1877.51 294.27
  C 1854.86 301.15 1801.56 308.58 1796.55 272.79
  Z
  M 907.49 280.24
  C 919.69 333.87 978.86 342.01 1022.42 327.96
  A 1.32 1.30 76.7 0 0 1023.31 326.50
  L 1018.16 294.48
  Q 1018.05 293.78 1017.37 294.02
  C 983.09 306.13 946.98 292.24 952.30 249.77
  C 956.48 216.45 989.77 210.78 1016.08 220.24
  Q 1016.57 220.41 1016.68 219.90
  L 1023.63 187.19
  Q 1023.75 186.63 1023.21 186.46
  Q 995.79 177.82 967.42 183.11
  C 920.27 191.90 897.09 234.52 907.49 280.24
  Z"
/>
<path fill="#5ec6f0" d="
  M 141.98 403.32
  Q 141.00 401.96 138.02 400.94
  Q 118.22 389.84 98.67 378.12
  C 97.69 377.53 97.65 377.52 96.46 377.39
  A 1.13 1.12 76.4 0 1 95.65 376.89
  Q 94.00 374.39 91.15 374.53
  A 0.12 0.12 0.0 0 1 91.03 374.38
  L 91.15 373.87
  Q 91.18 373.76 91.08 373.69
  Q 82.85 368.19 79.80 366.96
  C 78.03 366.25 76.85 365.13 75.69 364.48
  Q 53.42 351.89 31.12 339.36
  A 1.78 1.72 0.6 0 1 30.45 338.70
  C 24.36 328.26 17.04 317.91 17.03 305.29
  Q 16.96 212.39 17.09 165.06
  C 17.12 152.36 15.58 142.03 19.80 130.61
  A 0.55 0.51 52.0 0 0 19.82 130.36
  L 19.46 127.73
  Q 19.40 127.29 19.67 126.94
  C 24.12 120.96 28.08 114.05 33.51 109.08
  C 45.87 97.74 61.39 90.29 75.60 81.54
  Q 78.89 79.51 82.37 77.83
  A 1.04 1.04 0.0 0 0 82.86 77.31
  Q 83.30 76.26 84.45 76.23
  A 0.57 0.49 26.1 0 0 84.72 76.16
  L 178.44 21.42
  Q 178.86 21.18 179.02 20.73
  Q 179.28 19.97 180.03 20.40
  A 0.75 0.73 -50.8 0 0 180.91 20.30
  C 185.51 16.11 194.30 17.84 199.54 14.73
  A 1.36 1.36 0.0 0 1 200.45 14.54
  Q 214.63 16.60 221.75 17.98
  Q 223.03 18.23 224.88 19.32
  Q 249.65 33.80 274.59 47.99
  Q 328.51 78.68 367.53 102.70
  Q 371.06 104.87 375.33 109.17
  Q 375.69 109.53 375.56 110.02
  Q 375.29 111.14 376.62 111.46
  Q 376.84 111.51 377.00 111.36
  Q 377.22 111.16 377.59 111.34
  A 0.24 0.23 34.6 0 1 377.66 111.72
  L 377.44 111.93
  Q 377.08 112.30 377.40 112.70
  Q 381.99 118.31 385.76 124.46
  C 388.63 129.16 390.43 138.77 390.50 144.25
  Q 390.64 154.71 390.71 165.17
  Q 390.72 165.67 391.14 165.92
  L 391.52 166.15
  Q 391.96 166.41 391.60 166.77
  L 391.09 167.28
  A 1.13 1.11 -22.9 0 0 390.76 168.07
  Q 390.65 224.83 391.00 281.59
  C 391.10 297.35 389.74 313.44 382.13 326.54
  Q 375.80 337.45 365.70 344.73
  Q 363.95 345.99 348.51 354.90
  Q 292.75 387.06 236.65 418.62
  C 234.05 420.09 231.03 422.42 227.98 423.97
  Q 227.56 424.18 227.22 423.85
  L 226.94 423.56
  A 0.28 0.28 0.0 0 0 226.56 423.56
  L 225.99 424.13
  Q 225.65 424.48 225.15 424.49
  Q 223.95 424.50 222.83 425.61
  Q 222.51 425.91 222.10 425.69
  Q 221.76 425.50 221.45 425.76
  C 220.13 426.88 218.78 426.56 217.62 426.88
  Q 204.71 430.39 192.01 428.48
  Q 190.44 428.25 189.35 428.53
  Q 188.88 428.65 188.43 428.46
  Q 185.64 427.22 183.09 425.51
  C 181.12 424.18 179.03 424.19 177.44 423.30
  Q 159.67 413.29 141.98 403.32
  Z
  M 198.00 376.23
  L 198.00 377.49
  Q 198.00 378.00 198.51 378.00
  C 202.91 377.99 206.95 378.50 211.18 377.01
  C 215.51 375.48 219.61 374.12 223.67 371.83
  Q 271.95 344.56 320.16 317.18
  C 342.94 304.25 343.96 287.92 344.03 264.01
  Q 344.19 215.47 343.87 166.95
  Q 343.80 156.14 338.60 147.11
  C 336.39 143.29 329.92 135.44 326.05 133.22
  Q 272.56 102.61 219.02 72.08
  C 216.88 70.86 210.95 69.78 208.63 69.65
  C 205.22 69.46 201.14 69.99 197.96 68.98
  Q 197.33 68.79 196.61 69.01
  Q 183.43 73.09 180.25 74.99
  Q 129.80 105.12 79.37 135.28
  C 73.49 138.80 69.83 146.65 68.00 152.98
  C 67.17 155.83 65.14 157.26 65.66 160.90
  A 1.18 1.15 -31.0 0 1 65.44 161.74
  L 64.56 162.89
  Q 64.19 163.37 64.15 163.98
  Q 63.64 171.92 63.77 179.85
  C 64.23 208.12 64.02 236.42 64.03 264.69
  Q 64.03 269.91 64.95 278.66
  C 65.33 282.29 64.78 287.92 66.27 292.04
  C 69.76 301.70 76.28 309.89 85.35 315.11
  Q 138.17 345.45 191.12 375.55
  Q 191.47 375.74 191.86 375.74
  L 197.47 375.70
  Q 198.00 375.70 198.00 376.23
  Z"
/>
<path fill="#ffffff" d="
  M 197.47 375.70
  L 191.86 375.74
  Q 191.47 375.74 191.12 375.55
  Q 138.17 345.45 85.35 315.11
  C 76.28 309.89 69.76 301.70 66.27 292.04
  C 64.78 287.92 65.33 282.29 64.95 278.66
  Q 64.03 269.91 64.03 264.69
  C 64.02 236.42 64.23 208.12 63.77 179.85
  Q 63.64 171.92 64.15 163.98
  Q 64.19 163.37 64.56 162.89
  L 65.44 161.74
  A 1.18 1.15 -31.0 0 0 65.66 160.90
  C 65.14 157.26 67.17 155.83 68.00 152.98
  C 69.83 146.65 73.49 138.80 79.37 135.28
  Q 129.80 105.12 180.25 74.99
  Q 183.43 73.09 196.61 69.01
  Q 197.33 68.79 197.96 68.98
  C 201.14 69.99 205.22 69.46 208.63 69.65
  C 210.95 69.78 216.88 70.86 219.02 72.08
  Q 272.56 102.61 326.05 133.22
  C 329.92 135.44 336.39 143.29 338.60 147.11
  Q 343.80 156.14 343.87 166.95
  Q 344.19 215.47 344.03 264.01
  C 343.96 287.92 342.94 304.25 320.16 317.18
  Q 271.95 344.56 223.67 371.83
  C 219.61 374.12 215.51 375.48 211.18 377.01
  C 206.95 378.50 202.91 377.99 198.51 378.00
  Q 198.00 378.00 198.00 377.49
  L 198.00 376.23
  Q 198.00 375.70 197.47 375.70
  Z
  M 255.56 168.69
  Q 234.55 156.45 213.52 144.21
  A 1.49 1.47 -30.2 0 0 212.74 144.01
  Q 210.91 144.08 210.57 142.38
  Q 210.45 141.80 209.85 141.79
  L 198.30 141.65
  Q 197.69 141.65 197.16 141.96
  L 139.21 176.24
  Q 138.77 176.50 138.60 176.98
  C 138.03 178.53 134.06 181.93 132.15 184.11
  Q 131.83 184.48 131.80 184.97
  C 130.29 207.52 131.02 230.35 130.97 252.96
  C 130.96 255.54 130.27 258.59 131.26 261.92
  Q 131.40 262.40 131.81 262.68
  Q 133.02 263.50 132.74 265.05
  Q 132.66 265.48 133.00 265.76
  Q 137.60 269.54 140.81 271.44
  Q 152.16 278.13 177.32 292.19
  Q 189.28 298.87 193.73 301.71
  C 195.08 302.57 196.39 302.68 197.69 303.71
  Q 198.06 304.00 198.53 304.00
  L 209.75 304.00
  A 1.92 1.89 29.0 0 0 210.73 303.73
  Q 238.36 287.36 266.11 271.23
  C 269.00 269.55 272.51 267.18 274.03 264.13
  C 276.12 259.98 278.26 255.63 278.21 250.82
  Q 278.03 233.50 277.92 216.19
  C 277.84 204.12 277.98 190.51 273.60 182.12
  C 270.64 176.44 262.15 172.52 255.56 168.69
  Z"
/>
<path fill="#384d60" d="
  M 695.30 184.00
  L 742.26 184.00
  Q 742.97 184.00 742.97 183.30
  Q 743.00 175.81 743.28 172.01
  C 747.53 115.14 818.57 105.35 860.37 122.51
  Q 860.87 122.72 860.72 123.24
  L 851.10 156.42
  A 0.48 0.48 0.0 0 1 850.46 156.73
  Q 831.42 149.04 811.21 151.87
  C 793.52 154.35 787.52 167.15 788.36 183.60
  Q 788.38 184.00 788.79 184.00
  L 877.50 184.00
  A 0.50 0.50 0.0 0 1 878.00 184.50
  L 878.00 330.50
  A 0.50 0.50 0.0 0 1 877.50 331.00
  L 832.50 331.00
  A 0.50 0.50 0.0 0 1 832.00 330.50
  L 832.00 218.00
  Q 832.00 217.50 831.50 217.50
  L 789.00 217.50
  Q 788.50 217.50 788.50 218.00
  L 788.50 330.50
  A 0.50 0.50 0.0 0 1 788.00 331.00
  L 743.50 331.00
  A 0.50 0.50 0.0 0 1 743.00 330.50
  L 743.00 218.00
  A 0.50 0.50 0.0 0 0 742.50 217.50
  L 695.50 217.50
  A 0.50 0.50 0.0 0 0 695.00 218.00
  L 695.00 330.50
  A 0.50 0.50 0.0 0 1 694.50 331.00
  L 649.50 331.00
  Q 649.00 331.00 649.00 330.50
  L 649.00 218.25
  A 0.75 0.75 0.0 0 0 648.25 217.50
  L 630.50 217.50
  Q 629.75 217.50 629.75 216.75
  L 629.75 184.74
  A 0.76 0.76 0.0 0 1 630.51 183.98
  L 648.55 184.04
  Q 649.15 184.04 649.13 183.44
  C 647.51 132.35 692.09 106.62 737.37 122.73
  Q 737.85 122.91 737.70 123.40
  L 727.81 155.10
  Q 727.61 155.72 727.00 155.50
  C 702.54 146.66 693.48 161.72 694.87 183.60
  Q 694.90 184.00 695.30 184.00
  Z"
/>
<path fill="#384d60" d="
  M 1679.38 197.42
  A 0.34 0.34 0.0 0 0 1680.00 197.22
  L 1680.00 118.50
  A 0.50 0.50 0.0 0 1 1680.50 118.00
  L 1724.98 118.00
  A 0.48 0.48 0.0 0 1 1725.46 118.48
  Q 1725.49 204.75 1725.76 291.25
  Q 1725.82 310.98 1726.62 330.61
  A 0.38 0.37 89.2 0 1 1726.25 331.00
  L 1686.77 331.00
  A 0.52 0.52 0.0 0 1 1686.25 330.52
  L 1684.26 309.52
  A 0.36 0.36 0.0 0 0 1683.60 309.36
  Q 1669.70 331.18 1643.56 333.64
  C 1609.81 336.81 1584.54 313.09 1577.45 281.65
  C 1569.79 247.70 1578.19 205.18 1612.10 187.90
  C 1631.26 178.13 1665.37 177.04 1679.38 197.42
  Z
  M 1634.44 291.56
  C 1650.12 303.67 1672.66 297.15 1678.25 277.76
  C 1681.21 267.49 1680.16 252.99 1679.64 243.06
  C 1678.55 221.92 1657.60 208.93 1638.58 219.41
  C 1616.54 231.54 1615.15 276.67 1634.44 291.56
  Z"
/>
<path fill="#384d60" d="
  M 495.09 332.36
  C 454.73 325.70 427.77 294.20 420.84 254.69
  C 408.17 182.50 454.35 116.28 533.24 127.23
  C 600.98 136.63 623.96 206.03 608.23 264.51
  C 594.30 316.30 546.08 340.78 495.09 332.36
  Z
  M 489.67 171.32
  C 455.59 198.16 457.13 294.31 513.26 297.61
  C 574.64 301.22 579.38 192.90 537.10 168.07
  C 522.27 159.37 503.16 160.70 489.67 171.32
  Z"
/>
<path fill="#384d60" d="
  M 1333.75 271.85
  C 1329.23 224.72 1329.74 176.91 1330.06 129.43
  A 0.44 0.43 -89.3 0 1 1330.49 129.00
  L 1371.50 129.00
  A 0.50 0.50 0.0 0 1 1372.00 129.50
  L 1372.00 330.50
  A 0.50 0.50 0.0 0 1 1371.50 331.00
  L 1324.53 331.00
  Q 1324.06 331.00 1323.83 330.59
  C 1296.83 281.90 1268.50 233.56 1246.30 182.44
  Q 1246.13 182.05 1245.82 182.02
  A 0.50 0.50 0.0 0 0 1245.27 182.53
  C 1247.21 231.76 1247.13 281.06 1246.98 330.30
  Q 1246.98 331.00 1246.28 331.00
  L 1205.50 331.00
  Q 1205.00 331.00 1205.00 330.50
  L 1205.00 129.50
  A 0.50 0.50 0.0 0 1 1205.50 129.00
  L 1257.75 129.00
  A 1.05 1.04 -14.7 0 1 1258.66 129.53
  C 1285.04 176.24 1312.88 222.07 1332.98 272.03
  A 0.40 0.40 0.0 0 0 1333.75 271.85
  Z"
/>
<path fill="#5ec6f0" d="
  M 255.56 168.69
  C 262.15 172.52 270.64 176.44 273.60 182.12
  C 277.98 190.51 277.84 204.12 277.92 216.19
  Q 278.03 233.50 278.21 250.82
  C 278.26 255.63 276.12 259.98 274.03 264.13
  C 272.51 267.18 269.00 269.55 266.11 271.23
  Q 238.36 287.36 210.73 303.73
  A 1.92 1.89 29.0 0 1 209.75 304.00
  L 198.53 304.00
  Q 198.06 304.00 197.69 303.71
  C 196.39 302.68 195.08 302.57 193.73 301.71
  Q 189.28 298.87 177.32 292.19
  Q 152.16 278.13 140.81 271.44
  Q 137.60 269.54 133.00 265.76
  Q 132.66 265.48 132.74 265.05
  Q 133.02 263.50 131.81 262.68
  Q 131.40 262.40 131.26 261.92
  C 130.27 258.59 130.96 255.54 130.97 252.96
  C 131.02 230.35 130.29 207.52 131.80 184.97
  Q 131.83 184.48 132.15 184.11
  C 134.06 181.93 138.03 178.53 138.60 176.98
  Q 138.77 176.50 139.21 176.24
  L 197.16 141.96
  Q 197.69 141.65 198.30 141.65
  L 209.85 141.79
  Q 210.45 141.80 210.57 142.38
  Q 210.91 144.08 212.74 144.01
  A 1.49 1.47 -30.2 0 1 213.52 144.21
  Q 234.55 156.45 255.56 168.69
  Z"
/>
<path fill="#ffffff" d="
  M 513.26 297.61
  C 457.13 294.31 455.59 198.16 489.67 171.32
  C 503.16 160.70 522.27 159.37 537.10 168.07
  C 579.38 192.90 574.64 301.22 513.26 297.61
  Z"
/>
<path fill="#384d60" d="
  M 1080.57 272.79
  C 1085.10 305.63 1130.64 301.75 1152.64 296.46
  Q 1157.14 295.37 1161.68 294.33
  Q 1162.20 294.21 1162.30 294.74
  L 1168.04 324.42
  Q 1168.13 324.90 1167.70 325.12
  Q 1166.43 325.79 1165.20 326.20
  C 1119.79 341.14 1053.04 339.40 1039.48 281.00
  C 1026.96 227.16 1061.68 174.31 1121.46 181.94
  C 1166.97 187.74 1181.17 232.26 1174.77 271.79
  Q 1174.70 272.25 1174.23 272.25
  L 1081.04 272.25
  A 0.47 0.47 0.0 0 0 1080.57 272.79
  Z
  M 1115.27 212.29
  C 1095.80 207.74 1082.16 222.06 1080.48 240.44
  Q 1080.43 241.00 1080.99 241.00
  L 1133.25 241.00
  Q 1133.79 241.00 1133.79 240.46
  C 1133.89 228.08 1128.08 215.28 1115.27 212.29
  Z"
/>
<path fill="#384d60" d="
  M 1550.46 281.75
  C 1529.87 353.06 1418.00 351.55 1402.96 277.49
  C 1393.50 230.89 1417.65 187.02 1467.48 181.73
  C 1485.37 179.84 1502.67 181.94 1518.25 190.54
  C 1550.48 208.33 1560.21 247.99 1550.46 281.75
  Z
  M 1477.94 213.57
  C 1439.22 213.29 1439.09 291.91 1470.59 300.19
  C 1497.76 307.33 1506.66 277.97 1506.86 257.70
  C 1507.04 239.89 1500.85 213.73 1477.94 213.57
  Z"
/>
<path fill="#384d60" d="
  M 1796.55 272.79
  C 1801.56 308.58 1854.86 301.15 1877.51 294.27
  Q 1878.17 294.07 1878.30 294.74
  L 1884.05 324.48
  A 0.76 0.75 74.6 0 1 1883.57 325.33
  C 1862.61 333.05 1836.74 335.93 1814.00 332.72
  C 1780.09 327.94 1757.34 304.95 1753.79 270.48
  C 1749.64 230.24 1769.23 190.29 1811.73 182.41
  C 1870.44 171.53 1899.86 219.93 1890.65 271.73
  Q 1890.56 272.25 1890.03 272.25
  L 1797.02 272.25
  A 0.48 0.47 86.3 0 0 1796.55 272.79
  Z
  M 1831.27 212.29
  C 1811.78 207.72 1798.19 222.07 1796.48 240.43
  Q 1796.42 241.00 1796.99 241.00
  L 1849.26 241.00
  Q 1849.82 241.00 1849.83 240.43
  C 1849.90 228.11 1844.08 215.30 1831.27 212.29
  Z"
/>
<path fill="#384d60" d="
  M 1022.42 327.96
  C 978.86 342.01 919.69 333.87 907.49 280.24
  C 897.09 234.52 920.27 191.90 967.42 183.11
  Q 995.79 177.82 1023.21 186.46
  Q 1023.75 186.63 1023.63 187.19
  L 1016.68 219.90
  Q 1016.57 220.41 1016.08 220.24
  C 989.77 210.78 956.48 216.45 952.30 249.77
  C 946.98 292.24 983.09 306.13 1017.37 294.02
  Q 1018.05 293.78 1018.16 294.48
  L 1023.31 326.50
  A 1.32 1.30 76.7 0 1 1022.42 327.96
  Z"
/>
<path fill="#ffffff" d="
  M 1080.48 240.44
  C 1082.16 222.06 1095.80 207.74 1115.27 212.29
  C 1128.08 215.28 1133.89 228.08 1133.79 240.46
  Q 1133.79 241.00 1133.25 241.00
  L 1080.99 241.00
  Q 1080.43 241.00 1080.48 240.44
  Z"
/>
<path fill="#ffffff" d="
  M 1796.48 240.43
  C 1798.19 222.07 1811.78 207.72 1831.27 212.29
  C 1844.08 215.30 1849.90 228.11 1849.83 240.43
  Q 1849.82 241.00 1849.26 241.00
  L 1796.99 241.00
  Q 1796.42 241.00 1796.48 240.43
  Z"
/>
<path fill="#ffffff" d="
  M 1470.59 300.19
  C 1439.09 291.91 1439.22 213.29 1477.94 213.57
  C 1500.85 213.73 1507.04 239.89 1506.86 257.70
  C 1506.66 277.97 1497.76 307.33 1470.59 300.19
  Z"
/>
<path fill="#ffffff" d="
  M 1634.44 291.56
  C 1615.15 276.67 1616.54 231.54 1638.58 219.41
  C 1657.60 208.93 1678.55 221.92 1679.64 243.06
  C 1680.16 252.99 1681.21 267.49 1678.25 277.76
  C 1672.66 297.15 1650.12 303.67 1634.44 291.56
  Z"
/>
<path fill="#384d60" d="
  M 138.02 400.94
  Q 141.00 401.96 141.98 403.32
  Q 139.20 402.45 138.02 400.94
  Z"
/>
</svg>
